<svg width="26" height="27" viewBox="0 0 26 27" fill="none" xmlns="http://www.w3.org/2000/svg">
<path d="M22.9167 10.125H3.08333C1.51853 10.125 1 11.3562 1 12.875V22.5C1 24.0188 1.51853 25.25 3.08333 25.25H22.9167C24.4815 25.25 25 24.0188 25 22.5V12.875C25 11.3562 24.4815 10.125 22.9167 10.125Z" stroke="#111111" stroke-width="2" stroke-linecap="round" stroke-linejoin="round"/>
<path d="M6 17V6.86667C6 5.31073 6.7375 3.81852 8.05025 2.71831C9.36301 1.61809 11.1435 1 13 1C14.8565 1 16.637 1.61809 17.9497 2.71831C19.2625 3.81852 20 5.31073 20 6.86667V17" stroke="#111111" stroke-width="2" stroke-linecap="round" stroke-linejoin="round"/>
<circle cx="6" cy="17" r="2" fill="black"/>
<circle cx="20" cy="17" r="2" fill="black"/>
</svg>
