<?xml version="1.0" encoding="utf-8"?>
<!-- Generator: Adobe Illustrator 25.2.0, SVG Export Plug-In . SVG Version: 6.00 Build 0)  -->
<svg version="1.1" id="Layer_1" xmlns="http://www.w3.org/2000/svg" xmlns:xlink="http://www.w3.org/1999/xlink" x="0px" y="0px"
	 viewBox="0 0 1258.4 449" style="enable-background:new 0 0 1258.4 449;" xml:space="preserve">
<g>
	<path d="M88.3,381.1l88.1,0.5c79,0,91.4-34.7,106.9-107.2h3.3l-13.1,112H23.8v-12l200-339.9L153.7,35c-78,0-84.9,34-102.4,103.5
		h-3.6L64.8,32h230.9L88.3,381.1z"/>
	<path d="M444.8,39l117.5,343.5h25l0,4.3H454.8l0-4.3h46L466.3,279H361.8l-34.5,103.5h45l0,4.3h-93.5l0-4.3H322L438.9,39H444.8z
		 M464.9,275.9l-51.6-155.4l-50.6,155.4H464.9z"/>
	<path d="M1072.1,39l117.5,343.5h25l0,4.3h-132.5l0-4.3h46L1093.6,279H989.1l-34.5,103.5h45l0,4.3h-93.5l0-4.3h43.2L1066.2,39
		H1072.1z M1092.2,275.9l-51.6-155.4L990,275.9H1092.2z"/>
	<path d="M742.6,45.9c24,0.5,94.2-6.4,118.2,43.6c9,19,10.5,54.5-7,77.5c-24,31-69,38-89,41.5c74,14,89.5,53.5,91,112.5v15.5
		c0,7-1.7,46.3,10.3,54.3c8,6,20.2,1.4,34.2-2.6v2.9c-22.5,8.5-53,11.5-76-4.5c-28-20-30-60-30-79.5v-17.5c0-14-1-43.5-19.5-62.5
		c-16-16.5-31.1-19.4-67.6-19.4l-9.9,0v174.9h42l0,4.3H596.8l0-4.3h42v-332h-42v-4.6H742.6z M707.3,204.4c41,0,72.5-2.9,91.5-34.9
		c11-19,10.5-70.5-1.5-90.5c-19.5-32.5-45.5-28.5-100-28.5v153.9H707.3z"/>
</g>
</svg>
